<?xml version="1.0" standalone="no"?>
<!DOCTYPE svg PUBLIC "-//W3C//DTD SVG 20010904//EN"
 "http://www.w3.org/TR/2001/REC-SVG-20010904/DTD/svg10.dtd">
<svg version="1.0" xmlns="http://www.w3.org/2000/svg"
 width="1785.000000pt" height="576.000000pt" viewBox="0 0 1785.000000 576.000000"
 preserveAspectRatio="xMidYMid meet">

<g transform="translate(0.000000,576.000000) scale(0.100000,-0.100000)"
fill="#000000" stroke="none">
<path d="M15100 5280 c0 -5 6 -10 13 -10 6 0 4 -5 -7 -11 -14 -9 -20 -8 -27 2
-6 10 -9 11 -9 2 0 -7 -6 -13 -14 -13 -7 0 -26 -6 -41 -14 -15 -8 -37 -13 -50
-11 -16 1 -22 -2 -18 -12 4 -11 0 -11 -22 -3 -35 13 -35 13 -35 -10 0 -21 -40
-38 -59 -25 -7 4 -8 0 -4 -11 5 -14 2 -16 -16 -11 -13 3 -20 3 -17 0 3 -4 -3
-12 -14 -20 -11 -8 -20 -20 -20 -28 0 -17 -34 -37 -45 -27 -5 4 -5 2 -2 -4 4
-7 -26 -42 -67 -81 -40 -38 -79 -79 -85 -91 -7 -13 -16 -20 -21 -17 -6 3 -7
-1 -4 -9 3 -9 1 -16 -6 -16 -6 0 -8 -5 -5 -10 4 -7 -2 -9 -19 -4 -16 4 -26 2
-26 -5 0 -6 10 -11 22 -11 21 0 21 -1 3 -20 -14 -16 -20 -17 -27 -8 -6 10 -10
10 -18 -2 -14 -22 -12 -33 5 -26 9 3 15 0 15 -10 0 -10 -7 -13 -25 -8 -26 7
-29 -6 -10 -49 7 -16 -9 -71 -26 -91 -4 -4 -13 -5 -20 -1 -9 6 -9 10 2 19 8 6
15 17 17 24 2 10 -2 10 -18 0 -27 -17 -24 -64 3 -61 15 1 17 -4 13 -20 -4 -12
-9 -44 -13 -72 -3 -27 -10 -55 -15 -62 -5 -7 -7 -17 -3 -23 3 -5 1 -10 -4 -10
-6 0 -11 -18 -11 -41 0 -22 4 -38 9 -35 13 8 22 -50 15 -95 -4 -26 -3 -39 5
-39 6 0 11 -13 11 -30 0 -16 4 -30 10 -30 5 0 7 -7 4 -15 -6 -15 32 -105 50
-117 6 -4 11 -19 12 -35 1 -16 7 -27 14 -25 7 2 9 -4 5 -17 -4 -14 -1 -19 12
-17 13 1 18 -6 18 -24 0 -26 20 -60 44 -75 10 -6 12 -4 6 6 -4 8 14 -7 41 -32
83 -77 78 -75 116 -32 18 21 48 53 66 71 48 50 49 70 6 117 -46 51 -77 95 -68
95 4 0 -2 8 -12 18 -26 24 -46 61 -39 72 4 6 1 10 -4 10 -6 0 -10 10 -8 23 1
14 -3 21 -11 19 -10 -2 -11 4 -7 19 4 13 3 19 -3 15 -11 -7 -24 76 -16 99 4 8
2 15 -3 15 -5 0 -10 23 -12 50 -1 28 2 50 6 50 5 0 7 -18 5 -40 -3 -25 0 -40
7 -40 13 0 15 74 2 99 -11 20 -3 103 9 96 5 -3 6 3 3 14 -3 10 0 22 6 25 6 4
11 17 11 29 0 18 2 19 10 7 5 -8 10 -10 10 -3 0 6 9 9 23 6 22 -5 22 -5 -2 15
l-24 20 27 46 c26 44 144 177 131 146 -4 -8 2 -5 12 8 12 15 25 21 36 16 10
-3 17 -1 17 5 0 6 7 11 15 11 8 0 15 5 15 10 0 6 6 10 13 10 18 1 57 36 57 52
0 10 2 10 9 -1 5 -8 16 -11 26 -8 9 4 14 11 10 16 -3 6 11 15 32 20 65 18 73
15 73 -26 0 -43 11 -39 12 6 1 25 7 32 34 41 19 6 42 9 53 5 10 -3 35 -6 55
-7 20 -1 36 -5 36 -10 0 -4 9 -8 20 -8 11 0 20 -5 20 -11 0 -6 12 -10 28 -8
37 3 51 -3 139 -52 18 -10 38 -19 44 -19 6 0 33 -18 60 -41 33 -28 46 -45 42
-56 -4 -11 -2 -14 5 -9 8 4 10 2 6 -7 -3 -8 2 -17 11 -21 11 -4 14 -2 9 7 -4
6 2 3 15 -7 12 -11 19 -26 17 -33 -3 -7 -1 -12 3 -10 5 1 9 -2 9 -8 0 -5 -4
-9 -10 -7 -5 1 2 -13 16 -31 14 -19 23 -37 19 -40 -3 -4 -1 -7 5 -7 7 0 12 -9
12 -21 0 -11 4 -18 9 -15 5 3 9 0 8 -7 -1 -32 4 -48 13 -42 7 4 9 -2 4 -19 -3
-15 -2 -26 4 -26 5 0 12 -9 15 -20 3 -11 0 -20 -6 -20 -8 0 -7 -4 2 -9 11 -7
11 -9 0 -14 -10 -4 -10 -6 -1 -6 6 -1 12 -5 12 -11 0 -5 -3 -9 -7 -9 -25 4
-33 -4 -33 -33 0 -25 3 -29 10 -18 8 12 10 12 10 -5 0 -17 2 -17 10 -5 7 11
10 7 10 -18 0 -18 -3 -31 -7 -29 -5 3 -8 -17 -9 -45 -1 -27 -6 -54 -13 -61 -6
-6 -11 -20 -11 -30 0 -27 -59 -129 -71 -122 -5 4 -6 -2 -2 -11 5 -13 3 -16
-10 -11 -10 4 -14 2 -12 -6 3 -7 -11 -29 -30 -51 -38 -42 -44 -66 -20 -86 10
-9 12 -16 5 -20 -16 -10 57 -90 76 -83 11 4 15 0 12 -12 -2 -14 5 -19 29 -22
26 -3 37 2 55 23 13 15 37 44 54 63 17 20 41 55 54 79 13 23 28 42 34 42 5 0
7 3 4 6 -4 3 7 34 23 68 31 65 69 191 69 226 0 11 6 20 13 20 8 0 7 4 -3 10
-8 5 -10 10 -3 10 6 0 10 8 8 18 -2 9 -7 67 -10 127 -10 158 -9 155 -19 155
-4 0 -6 11 -4 25 3 14 1 25 -3 25 -5 0 -9 9 -9 20 0 11 -4 20 -8 20 -5 0 -14
17 -20 38 -14 45 -111 212 -123 212 -5 0 -9 6 -10 13 -1 17 -139 135 -207 176
-31 19 -59 38 -62 41 -4 6 -120 49 -145 54 -34 7 -54 19 -49 28 5 7 1 7 -11 1
-27 -15 -77 6 -69 29 5 17 -4 18 -110 18 -66 0 -117 -4 -121 -10 -4 -6 30 -10
95 -10 60 0 99 -4 95 -9 -3 -5 -51 -9 -108 -8 -91 2 -102 4 -99 20 2 11 -4 17
-18 17 -11 0 -20 -4 -20 -10z m-636 -555 c-4 -8 -10 -12 -15 -9 -11 6 -2 24
11 24 5 0 7 -7 4 -15z"/>
<path d="M14940 4862 c-6 -2 -10 -30 -10 -62 l0 -58 113 -4 c95 -3 120 -7 162
-28 29 -14 60 -40 73 -60 l23 -35 -185 -3 -186 -2 0 -50 0 -50 185 0 c156 0
185 -2 185 -15 0 -10 -6 -12 -17 -8 -16 6 -17 5 -3 -12 11 -14 12 -19 2 -22
-6 -3 -10 -8 -7 -13 8 -13 -65 -68 -113 -85 -25 -8 -87 -18 -138 -21 l-94 -7
0 -55 0 -54 86 -94 c53 -58 83 -98 78 -105 -4 -7 -3 -9 4 -5 6 3 14 2 17 -4 4
-6 3 -10 -2 -9 -19 3 -27 -2 -15 -10 11 -7 10 -9 -3 -14 -9 -4 -14 -3 -11 2 3
5 -3 11 -14 14 -21 5 -27 -7 -9 -19 10 -6 -28 -47 -81 -87 -9 -7 -40 -41 -70
-77 -30 -35 -70 -80 -87 -99 -18 -19 -33 -37 -33 -41 0 -3 -13 -5 -30 -4 -16
1 -28 -2 -25 -6 11 -18 -34 -31 -71 -21 -19 5 -41 8 -49 5 -7 -3 -16 -1 -20 5
-3 6 -19 11 -36 11 -16 0 -29 5 -29 10 0 6 -13 10 -28 10 -16 0 -32 3 -36 7
-3 4 -17 8 -29 10 -38 5 -49 12 -41 25 6 10 4 10 -8 0 -13 -10 -22 -11 -38 -2
-11 6 -18 16 -14 21 4 7 -3 6 -16 -1 -16 -9 -25 -9 -33 -1 -6 6 -25 11 -41 11
-17 0 -39 7 -49 14 -9 7 -28 11 -42 8 -15 -2 -25 0 -25 7 0 17 -72 3 -87 -16
-7 -9 -19 -13 -27 -10 -9 4 -18 2 -22 -4 -3 -5 -13 -9 -22 -8 -35 3 -50 -2
-56 -17 -6 -15 -4 -15 11 -3 9 8 14 9 10 2 -4 -6 -3 -14 3 -18 5 -3 10 -2 10
3 0 5 9 12 21 15 16 4 12 -4 -18 -37 -24 -27 -44 -40 -55 -38 -12 3 -18 -2
-18 -12 0 -10 5 -13 17 -9 11 4 14 3 9 -5 -4 -7 -16 -12 -27 -12 -12 0 -19 -5
-16 -12 2 -7 10 -12 17 -10 9 2 10 -4 6 -20 -4 -13 -10 -43 -13 -66 -3 -24 -9
-39 -13 -33 -3 6 -6 -18 -5 -54 0 -36 -2 -65 -5 -65 -12 0 -4 -61 8 -69 9 -5
11 -17 6 -35 -4 -16 -1 -32 7 -43 8 -8 12 -26 11 -39 -2 -13 1 -24 7 -24 6 0
11 -7 11 -15 0 -8 5 -15 10 -15 6 0 8 -11 4 -25 -5 -18 -2 -25 9 -25 11 0 13
-6 9 -22 -3 -13 -1 -19 5 -15 6 4 18 -4 26 -17 l16 -24 1283 -1 c706 -1 1297
3 1313 7 20 6 29 15 28 27 0 9 9 38 22 64 19 37 49 125 61 174 1 4 2 32 3 62
1 44 4 53 16 49 12 -5 15 4 15 52 0 62 -16 65 -23 4 -2 -19 -5 -3 -5 37 -1 39
-7 75 -13 78 -6 4 -8 13 -5 21 3 8 2 14 -2 14 -5 0 -14 17 -22 37 -24 68 -101
143 -146 143 -8 0 -14 4 -14 10 0 5 -7 7 -15 4 -8 -4 -15 -1 -15 5 0 6 -11 8
-30 5 -24 -5 -30 -3 -30 11 0 14 -3 15 -15 5 -10 -9 -32 -11 -65 -7 -28 3 -50
2 -50 -3 0 -4 4 -10 10 -12 5 -1 -2 -8 -15 -15 -20 -9 -25 -8 -25 3 0 8 -9 14
-21 14 -11 0 -17 -5 -14 -10 4 -6 11 -7 17 -4 7 5 8 2 4 -5 -5 -8 -22 -10 -50
-7 -29 4 -35 3 -21 -3 l20 -10 -20 -2 c-11 -1 -33 -1 -50 0 -20 1 -26 -1 -17
-7 9 -6 6 -12 -13 -20 -15 -7 -25 -8 -25 -2 0 6 -5 10 -11 10 -5 0 -8 -4 -4
-9 3 -5 -5 -13 -17 -17 -13 -4 -24 -2 -26 5 -2 6 -8 11 -14 11 -6 0 -8 -6 -5
-13 2 -7 -6 -18 -19 -24 -20 -9 -24 -8 -24 5 -1 15 -2 15 -14 0 -17 -22 -27
-23 -19 -2 4 12 1 15 -13 12 -10 -2 -18 -9 -17 -15 4 -22 -42 -32 -75 -16 -18
9 -32 19 -32 24 0 4 -10 19 -22 32 -13 13 -59 63 -103 112 -44 48 -104 106
-135 129 -30 22 -57 44 -60 47 -7 9 -93 38 -132 44 -32 5 -83 53 -168 156
l-29 36 62 11 c142 27 240 105 273 219 l15 53 90 0 89 0 0 50 0 50 -65 0 c-49
0 -66 4 -73 16 -5 9 -15 14 -21 10 -6 -4 -8 -12 -5 -18 4 -6 1 -9 -6 -6 -7 2
-18 21 -25 41 -7 21 -25 56 -39 77 l-26 40 130 0 131 0 -3 45 -3 45 -343 3
c-188 1 -347 1 -352 -1z"/>
<path d="M785 3814 c-57 -8 -277 -50 -315 -60 -13 -3 -15 -119 -15 -969 l0
-965 125 0 125 0 -3 285 c-1 157 1 285 5 285 4 0 43 -14 87 -31 81 -31 212
-59 280 -59 83 0 214 31 295 68 54 26 212 172 217 202 2 8 10 20 18 26 9 6 13
14 9 17 -3 4 -1 7 6 7 7 0 10 4 6 9 -3 5 1 16 9 24 8 8 12 17 9 21 -4 3 -1 6
6 6 7 0 9 4 6 10 -3 5 0 20 7 32 7 13 11 26 10 31 -1 4 2 7 7 7 4 0 6 11 3 25
-2 14 0 25 7 25 5 0 8 6 5 14 -3 8 -1 17 5 20 6 4 8 13 4 21 -3 8 -2 23 2 33
10 24 12 313 2 319 -5 3 -7 15 -6 26 1 12 -3 35 -10 51 -6 16 -10 35 -7 43 3
7 1 13 -5 13 -6 0 -8 4 -4 9 3 5 0 13 -6 16 -5 4 -8 13 -5 21 3 8 1 14 -5 14
-6 0 -7 5 -4 10 3 6 1 10 -5 10 -6 0 -8 5 -5 10 3 6 1 10 -5 10 -6 0 -8 5 -5
10 3 6 1 10 -5 10 -6 0 -8 5 -5 10 3 6 1 10 -5 10 -6 0 -9 4 -6 9 3 5 -1 12
-9 15 -8 3 -14 10 -13 15 2 5 -6 17 -17 26 -11 9 -13 13 -5 9 8 -3 -6 13 -31
37 -25 24 -33 35 -19 24 14 -11 8 -3 -13 18 -56 53 -144 104 -240 139 -79 29
-90 30 -267 33 -102 2 -198 1 -215 -1z m346 -240 c30 -9 74 -28 99 -42 25 -15
48 -26 51 -25 3 1 24 -17 45 -40 21 -23 28 -33 14 -22 -14 11 -6 0 18 -24 24
-23 41 -48 39 -54 -2 -7 3 -18 10 -26 8 -7 12 -19 9 -27 -3 -7 -1 -14 4 -16 5
-2 11 -14 12 -28 2 -14 7 -28 12 -32 5 -3 9 -71 9 -150 0 -184 -1 -208 -10
-208 -4 0 -9 -14 -9 -32 -1 -18 -6 -34 -13 -36 -6 -2 -9 -8 -6 -12 9 -14 -24
-83 -48 -103 -12 -10 -15 -16 -7 -12 10 4 9 2 -2 -8 -10 -8 -14 -17 -10 -21 4
-4 2 -6 -3 -4 -6 2 -28 -12 -50 -31 -22 -18 -34 -30 -26 -26 9 6 12 4 7 -4 -4
-6 -11 -9 -15 -6 -5 2 -26 -4 -48 -15 -111 -53 -292 -44 -411 22 -18 10 -38
15 -44 12 -6 -4 -8 -3 -5 2 3 6 -3 16 -15 23 -16 10 -19 10 -12 -1 6 -10 4
-10 -9 1 -16 13 -17 51 -15 479 l3 464 50 5 c27 2 51 6 54 8 12 13 271 4 322
-11z"/>
<path d="M1280 3496 c0 -2 8 -10 18 -17 15 -13 16 -12 3 4 -13 16 -21 21 -21
13z"/>
<path d="M2495 3801 c-103 -29 -187 -75 -257 -143 -35 -33 -62 -64 -61 -68 2
-5 -6 -14 -17 -20 -11 -6 -18 -15 -15 -21 4 -5 -1 -12 -9 -15 -9 -3 -14 -10
-11 -14 3 -4 -2 -10 -10 -14 -8 -3 -12 -12 -9 -21 4 -8 0 -17 -9 -21 -9 -3
-13 -12 -10 -20 3 -8 0 -14 -6 -14 -6 0 -10 -3 -9 -7 1 -5 -3 -18 -10 -29 -6
-12 -9 -24 -6 -27 3 -3 2 -12 -2 -19 -5 -7 -10 -22 -11 -33 -2 -11 -6 -27 -9
-35 -12 -30 -16 -98 -15 -235 2 -171 4 -195 15 -195 4 0 6 -9 3 -20 -3 -11 -1
-23 5 -26 5 -3 7 -12 4 -20 -3 -8 -1 -14 5 -14 5 0 9 -6 7 -12 -1 -7 3 -23 10
-36 7 -12 11 -26 8 -31 -3 -5 1 -14 9 -21 8 -7 12 -16 9 -21 -3 -5 0 -9 6 -9
6 0 8 -5 5 -10 -3 -6 1 -13 9 -16 9 -3 13 -10 10 -15 -3 -5 2 -12 10 -15 9 -3
13 -10 10 -15 -3 -5 0 -9 6 -9 6 0 8 -5 4 -12 -4 -6 -3 -8 3 -5 6 4 19 -3 29
-16 19 -21 19 -21 -1 -7 -14 10 -13 6 5 -14 129 -147 393 -226 658 -197 111
12 225 36 283 59 27 11 44 53 28 69 -4 4 -10 28 -12 53 -3 25 -8 53 -12 62 -4
9 -4 22 0 29 9 13 -34 9 -100 -11 -22 -7 -91 -19 -153 -27 -99 -14 -124 -14
-215 -1 -105 15 -158 34 -213 74 -17 13 -35 20 -39 16 -3 -4 -5 0 -3 8 2 8 -3
14 -10 12 -8 -1 -11 2 -7 7 3 6 -4 15 -15 21 -11 6 -18 15 -15 21 4 5 -1 12
-10 15 -9 4 -14 13 -11 20 3 7 -2 17 -10 22 -8 5 -16 18 -17 30 -1 12 -5 22
-10 22 -5 0 -7 7 -3 15 3 8 0 15 -5 15 -6 0 -9 9 -6 20 3 11 1 23 -5 26 -5 3
-7 12 -4 20 3 7 1 16 -4 19 -6 4 -10 19 -10 36 l0 29 495 0 495 0 2 103 c0 56
0 109 -1 117 -1 8 -4 37 -6 64 -2 27 -8 61 -14 75 -6 14 -12 37 -14 51 -2 14
-9 38 -16 53 -6 16 -9 32 -6 37 3 4 -2 13 -10 20 -8 7 -12 16 -9 21 3 5 0 9
-7 9 -7 0 -9 3 -6 7 4 3 -1 12 -11 20 -11 10 -12 12 -2 8 8 -4 6 1 -5 10 -11
9 -20 20 -20 24 0 5 -11 19 -25 31 -14 12 -18 19 -10 15 23 -10 -50 53 -94 82
-85 55 -161 74 -306 79 -112 3 -147 1 -205 -15z m304 -237 c34 -15 78 -43 98
-62 21 -20 31 -32 23 -28 -8 4 -6 0 5 -9 11 -9 19 -21 18 -26 -2 -5 2 -9 8 -9
5 0 7 -4 4 -10 -3 -5 -1 -10 6 -10 7 0 9 -3 6 -7 -4 -3 0 -17 8 -30 9 -13 13
-28 10 -33 -3 -5 -1 -11 5 -15 5 -3 10 -31 10 -61 l0 -54 -358 0 c-349 0 -358
0 -359 20 -1 11 2 22 7 25 5 3 7 12 4 19 -3 8 2 31 12 52 9 22 16 42 16 47 -1
4 3 7 9 7 5 0 7 5 4 10 -3 6 -1 10 5 10 6 0 9 4 6 9 -3 5 1 12 9 15 8 3 14 9
13 14 -5 16 115 112 166 131 78 30 188 28 265 -5z m-564 -1084 c10 -11 16 -20
13 -20 -3 0 -13 9 -23 20 -10 11 -16 20 -13 20 3 0 13 -9 23 -20z"/>
<path d="M3955 3811 c-53 -8 -140 -24 -243 -44 l-62 -12 -3 -708 -2 -707 123
0 122 0 0 608 c0 334 4 612 8 617 8 11 9 11 227 21 162 7 225 -3 284 -45 16
-11 30 -18 33 -15 3 2 11 -4 19 -13 12 -16 12 -17 -1 -8 -9 6 -4 0 10 -12 14
-13 21 -23 16 -23 -6 0 -2 -6 9 -13 10 -8 15 -19 11 -25 -3 -5 -1 -12 5 -14 6
-2 12 -16 12 -31 1 -15 5 -27 8 -27 21 0 30 -194 27 -593 l-3 -427 122 0 123
0 2 480 c2 264 0 481 -4 483 -4 1 -8 28 -10 59 -2 32 -7 58 -12 58 -4 0 -6 11
-4 25 3 15 1 22 -5 18 -6 -4 -8 0 -4 10 3 9 1 17 -4 19 -6 2 -12 15 -12 30 -1
14 -5 24 -8 22 -9 -5 -20 26 -14 36 3 5 0 12 -6 16 -8 4 -9 3 -5 -4 4 -7 5
-12 2 -12 -3 0 -10 10 -17 21 -9 17 -8 20 3 14 7 -4 -3 7 -22 25 -19 18 -26
26 -15 19 16 -11 15 -8 -4 14 -26 29 -36 35 -26 15 4 -7 -3 -2 -16 12 -12 14
-26 24 -30 22 -5 -1 -9 2 -9 8 0 12 -26 26 -109 57 -61 24 -80 26 -266 28
-110 2 -222 0 -250 -4z"/>
<path d="M5550 3810 c-30 -4 -93 -15 -140 -24 -47 -9 -102 -19 -122 -22 l-38
-7 0 -708 0 -709 123 0 122 0 0 617 0 616 30 3 c17 1 104 6 195 9 154 7 169 6
222 -15 32 -11 61 -21 65 -21 14 0 43 -31 37 -41 -3 -4 0 -7 7 -6 16 4 61 -62
54 -79 -3 -9 0 -11 7 -7 7 5 9 0 6 -14 -3 -12 -2 -22 3 -24 23 -8 31 -139 36
-573 l4 -460 122 -3 122 -3 -2 458 c-2 278 -7 481 -14 517 -6 32 -8 67 -6 77
3 10 1 19 -4 21 -5 2 -10 18 -12 36 -1 17 -6 32 -11 32 -4 0 -6 9 -3 20 3 11
2 18 -3 15 -10 -6 -22 24 -14 36 3 5 0 9 -7 9 -7 0 -9 3 -6 7 4 3 -1 12 -11
20 -11 10 -12 12 -2 8 8 -3 5 2 -8 11 -12 9 -38 39 -58 66 -32 43 -94 90 -94
71 0 -4 -6 0 -12 9 -7 9 -42 27 -78 39 -57 19 -89 22 -260 25 -107 1 -220 -1
-250 -6z m661 -107 c13 -16 12 -17 -3 -4 -10 7 -18 15 -18 17 0 8 8 3 21 -13z"/>
<path d="M10075 3810 c-33 -5 -85 -13 -115 -19 -30 -6 -83 -17 -117 -24 -34
-6 -64 -15 -67 -18 -4 -3 -7 -439 -9 -967 l-2 -962 125 0 125 0 -3 276 c-2
152 -1 283 3 291 5 13 8 13 28 0 44 -29 164 -64 258 -77 78 -11 112 -11 175
-1 129 21 228 58 262 100 8 9 10 10 6 2 -13 -24 47 23 101 80 28 29 41 46 30
38 -19 -14 -19 -14 0 12 11 15 25 24 30 21 6 -3 7 -2 3 3 -9 10 19 65 33 65 6
0 7 5 4 10 -3 6 -1 10 5 10 6 0 8 5 5 10 -3 6 -2 10 4 10 6 0 8 7 5 15 -4 8
-1 15 6 15 6 0 8 5 5 10 -3 6 -1 10 5 10 6 0 9 4 6 9 -4 5 -2 21 4 35 19 52
41 223 40 311 -3 141 -4 155 -14 155 -4 0 -6 13 -4 30 2 16 1 31 -4 32 -5 2
-9 18 -11 36 -1 17 -6 32 -11 32 -4 0 -6 7 -2 15 3 8 1 15 -5 15 -6 0 -7 5 -4
10 3 6 1 10 -5 10 -7 0 -10 6 -7 14 3 8 -1 17 -9 20 -9 3 -14 11 -12 18 2 6
-4 20 -14 30 -10 10 -16 23 -13 27 2 5 -2 12 -11 15 -8 3 -13 10 -9 15 3 6 -4
15 -15 21 -11 6 -19 16 -17 23 1 7 -4 11 -11 9 -8 -1 -11 1 -8 6 5 8 -17 31
-73 77 -16 14 -22 15 -17 5 4 -8 0 -6 -8 4 -9 11 -16 16 -16 10 0 -5 -5 -2
-10 7 -8 14 -92 53 -190 89 -42 15 -367 22 -455 10z m418 -252 c31 -15 57 -24
57 -21 0 3 9 -5 21 -18 11 -13 17 -18 14 -11 -4 8 15 -8 41 -35 27 -26 48 -51
46 -55 -1 -5 2 -8 8 -8 12 0 41 -55 33 -64 -4 -3 -1 -6 6 -6 8 0 11 -7 7 -15
-3 -8 -1 -15 5 -15 6 0 7 -4 4 -10 -3 -5 -1 -10 6 -10 6 0 9 -8 6 -20 -3 -10
0 -21 7 -23 15 -5 16 -369 0 -374 -6 -2 -9 -15 -6 -28 2 -15 0 -25 -7 -25 -7
0 -9 -4 -6 -10 3 -5 2 -10 -4 -10 -6 0 -8 -7 -5 -15 4 -8 2 -15 -3 -15 -5 0
-9 -10 -10 -22 -1 -12 -12 -31 -25 -41 -13 -10 -17 -16 -9 -12 7 4 -13 -18
-45 -49 -32 -31 -62 -56 -66 -56 -4 0 -8 -5 -8 -12 0 -6 -3 -9 -6 -5 -3 3 -27
-2 -53 -12 -66 -26 -149 -34 -223 -21 -65 11 -156 43 -195 68 -12 7 -30 15
-40 16 -10 2 -18 8 -18 14 0 6 -3 14 -7 18 -10 10 -10 885 0 900 14 22 109 32
262 30 144 -2 159 -4 213 -28z m177 -891 c0 -2 -15 -16 -32 -33 l-33 -29 29
33 c28 30 36 37 36 29z"/>
<path d="M11735 3813 c-40 -4 -133 -21 -220 -40 -38 -8 -79 -16 -90 -18 -20
-4 -20 -12 -20 -970 l0 -965 125 0 125 0 -3 285 c-1 157 0 285 4 285 3 0 47
-15 98 -34 127 -47 250 -64 358 -47 139 21 234 59 291 115 17 17 27 24 22 16
-8 -13 -6 -13 8 -1 9 7 14 18 10 24 -3 5 -2 7 4 4 5 -3 25 10 44 30 19 21 27
33 19 28 -9 -6 -7 -2 5 9 11 10 19 23 17 28 -1 5 5 11 13 14 8 3 12 10 10 15
-3 4 3 17 13 27 10 10 16 24 14 32 -3 7 0 10 7 6 7 -5 9 -1 5 8 -3 9 -1 16 6
16 6 0 8 5 5 10 -3 6 -2 10 3 10 6 0 9 6 8 13 -2 20 25 117 33 117 4 0 5 16 3
35 -2 19 0 35 5 35 12 0 11 307 -1 333 -5 9 -6 24 -2 32 3 8 1 15 -5 15 -5 0
-9 6 -8 13 1 6 -1 19 -4 27 -4 8 -9 26 -11 40 -3 14 -5 27 -6 30 -2 3 -2 8 -1
13 0 4 -4 7 -10 7 -5 0 -7 5 -4 10 3 6 1 10 -5 10 -6 0 -8 5 -5 10 3 6 2 10
-4 10 -10 0 -27 38 -23 53 1 4 -3 7 -9 7 -5 0 -8 4 -4 9 3 6 -3 14 -12 20 -10
6 -15 11 -10 11 4 0 -30 36 -75 80 -104 104 -197 151 -348 180 -43 8 -313 11
-375 3z m370 -249 c39 -14 75 -25 82 -26 7 -1 11 -4 9 -7 -2 -3 8 -15 22 -25
15 -12 22 -14 17 -5 -5 8 4 3 18 -10 15 -13 24 -28 20 -34 -3 -6 -1 -7 5 -3
12 7 55 -42 47 -54 -3 -4 2 -11 11 -14 9 -3 14 -13 11 -20 -3 -8 -1 -16 5 -18
13 -5 39 -79 33 -95 -2 -6 1 -13 6 -15 15 -5 21 -246 9 -325 -13 -80 -32 -143
-43 -143 -5 0 -5 -4 -2 -10 3 -5 1 -10 -5 -10 -6 0 -8 -4 -5 -10 3 -5 1 -10
-6 -10 -7 0 -9 -3 -6 -7 4 -3 -1 -12 -11 -20 -11 -10 -12 -12 -2 -8 8 4 6 -1
-5 -10 -11 -9 -19 -22 -17 -28 2 -7 0 -9 -4 -5 -9 10 -35 -12 -28 -23 3 -5 2
-9 -3 -8 -17 4 -43 -14 -36 -25 3 -6 3 -8 -1 -4 -4 3 -30 -5 -57 -19 -121 -60
-289 -49 -435 29 -28 15 -54 25 -57 22 -3 -3 -8 0 -13 7 -5 8 -3 10 7 5 8 -4
6 -1 -3 7 -17 13 -18 48 -18 466 0 311 3 451 11 451 5 0 7 5 3 12 -4 6 -3 8 3
5 6 -4 30 -3 54 2 24 5 105 9 179 10 120 0 143 -2 205 -25z"/>
<path d="M6614 3768 c1 -13 7 -29 14 -37 8 -8 12 -25 9 -37 -2 -13 -1 -21 3
-19 10 6 22 -54 13 -68 -4 -6 -1 -7 7 -2 10 6 12 3 8 -13 -4 -12 -2 -22 4 -22
6 0 8 -7 4 -15 -3 -8 0 -15 5 -15 6 0 9 -9 6 -20 -3 -10 0 -21 5 -22 5 -2 11
-15 11 -30 1 -14 4 -24 7 -22 7 8 50 -138 43 -149 -3 -6 -1 -7 5 -3 11 7 16
-7 15 -41 -1 -7 4 -13 9 -13 6 0 8 -7 4 -15 -3 -8 -1 -15 5 -15 6 0 7 -4 4
-10 -3 -5 -2 -10 2 -10 11 0 44 -90 37 -101 -3 -5 0 -9 6 -9 6 0 8 -4 5 -10
-3 -5 -1 -10 5 -10 7 0 9 -7 6 -16 -3 -8 -2 -12 4 -9 9 6 14 -10 13 -42 -1 -7
4 -10 9 -7 6 4 9 1 6 -7 -3 -8 2 -20 9 -28 8 -7 12 -20 9 -27 -3 -8 -1 -14 5
-14 6 0 7 -4 4 -10 -3 -5 -1 -10 5 -10 7 0 9 -7 6 -16 -3 -8 -2 -13 3 -10 10
7 33 -49 24 -58 -4 -3 -1 -6 6 -6 8 0 11 -6 7 -16 -3 -8 -2 -12 4 -9 9 5 12
-8 9 -31 0 -4 4 -10 9 -13 15 -10 43 -71 37 -80 -2 -5 2 -12 11 -15 9 -4 14
-13 10 -21 -3 -8 -1 -15 5 -15 6 0 7 -4 4 -10 -3 -5 -2 -10 3 -10 9 0 44 -69
42 -84 -1 -5 3 -12 8 -15 12 -8 55 -91 46 -91 -3 0 2 -7 10 -16 9 -8 14 -19
11 -24 -3 -5 0 -10 7 -12 15 -5 -7 -64 -28 -72 -7 -3 -11 -12 -8 -19 3 -9 -20
-40 -58 -78 -35 -35 -43 -46 -18 -24 l45 40 -44 -47 c-24 -26 -48 -45 -52 -42
-5 3 -17 -4 -29 -16 -11 -11 -20 -18 -20 -15 0 2 -19 -2 -41 -10 -54 -19 -190
-19 -253 0 -63 19 -65 19 -59 -5 3 -11 1 -20 -3 -20 -5 0 -10 -17 -12 -37 -1
-20 -6 -39 -10 -43 -4 -3 -8 -24 -10 -47 -3 -41 -2 -42 35 -52 74 -19 145 -31
181 -31 46 0 215 29 222 38 3 4 12 8 20 10 31 6 81 34 87 48 3 8 9 12 13 9 4
-3 15 7 24 20 9 14 21 23 25 20 9 -5 29 14 30 28 0 4 9 20 21 35 12 15 18 21
14 13 -5 -9 -3 -12 5 -7 6 4 9 11 6 16 -3 5 10 23 27 41 18 18 27 29 20 25 -8
-5 -4 10 9 32 13 22 27 38 31 36 4 -3 5 3 1 12 -4 12 -3 15 5 10 8 -5 10 -2 6
8 -4 9 1 18 10 22 9 3 14 10 11 14 -8 13 6 40 18 33 5 -3 7 -1 4 4 -9 14 17
76 27 66 4 -4 4 0 1 9 -3 8 0 22 8 29 7 8 12 20 9 27 -2 6 1 12 8 12 6 0 9 4
6 9 -7 11 24 91 35 91 5 0 6 6 3 14 -3 7 2 20 10 29 8 8 13 17 10 19 -6 7 17
68 26 68 4 0 8 6 7 13 -1 31 4 48 12 43 5 -4 7 2 4 12 -2 11 1 25 9 33 7 8 13
19 13 24 1 28 18 75 25 70 4 -3 6 4 3 15 -3 12 0 20 6 20 7 0 10 4 7 9 -9 13
28 113 38 104 5 -4 6 -3 2 4 -8 15 13 93 25 93 5 0 6 7 3 15 -4 8 -1 15 5 15
6 0 8 7 5 15 -4 8 -1 15 6 15 6 0 8 5 5 10 -6 10 33 150 44 160 3 3 6 10 6 15
1 28 18 95 23 95 4 0 8 14 9 32 1 17 6 34 10 37 5 3 9 19 11 36 2 16 7 32 10
35 4 3 8 18 9 35 1 16 6 31 11 33 5 1 7 14 4 27 -2 14 0 25 7 25 5 0 8 7 5 15
-4 8 -2 15 2 15 5 0 9 14 9 30 l0 30 -133 0 c-88 0 -131 -3 -127 -10 8 -12
-13 -120 -23 -120 -4 0 -8 -12 -8 -27 -3 -59 -17 -112 -27 -106 -6 3 -7 1 -3
-5 8 -13 -23 -142 -34 -142 -4 0 -5 -11 -2 -25 2 -15 0 -25 -7 -25 -7 0 -10
-4 -7 -9 7 -10 -25 -125 -36 -129 -4 -2 -6 -8 -3 -13 6 -9 -14 -90 -25 -99 -3
-3 -5 -11 -6 -17 -1 -7 -2 -22 -2 -34 -1 -12 -6 -17 -14 -13 -7 4 -8 3 -4 -5
9 -14 -52 -211 -65 -211 -6 0 -7 -4 -4 -10 9 -15 -37 -140 -56 -150 -12 -7
-19 -3 -28 16 -6 14 -9 30 -6 35 4 5 1 9 -5 9 -6 0 -8 5 -5 10 3 6 1 10 -5 10
-7 0 -9 7 -6 16 4 10 2 13 -6 8 -7 -5 -9 -2 -5 9 3 9 1 17 -5 19 -11 4 -61
119 -53 126 2 2 -3 11 -11 19 -8 9 -13 22 -10 30 4 9 2 11 -6 7 -7 -5 -9 0 -6
14 4 12 2 20 -3 16 -8 -5 -13 12 -12 43 1 7 -2 11 -6 8 -10 -6 -34 63 -26 75
3 5 1 10 -5 10 -6 0 -8 5 -5 10 3 6 2 10 -3 10 -11 0 -33 70 -26 82 3 4 0 8
-6 8 -7 0 -10 6 -8 12 3 7 -2 19 -9 27 -8 8 -13 21 -10 30 2 9 -2 23 -10 30
-8 7 -13 22 -10 32 3 10 0 20 -5 21 -5 2 -11 16 -11 31 -1 15 -6 27 -11 27 -4
0 -6 7 -2 15 3 8 2 15 -3 15 -10 0 -43 118 -36 130 3 4 1 10 -5 12 -6 2 -11
17 -13 35 -1 17 -6 29 -11 26 -5 -3 -7 8 -4 24 2 17 -2 35 -10 42 -7 8 -11 22
-9 32 5 18 -3 19 -132 19 -136 0 -138 0 -137 -22z"/>
<path d="M8161 3283 c4 -353 9 -519 18 -545 6 -20 10 -40 9 -45 -1 -4 3 -18
10 -31 7 -12 10 -27 7 -32 -3 -6 -1 -10 6 -10 7 0 10 -3 6 -6 -3 -4 1 -13 9
-21 8 -8 12 -19 9 -24 -4 -5 -1 -9 6 -9 7 0 9 -3 6 -7 -4 -3 1 -12 11 -20 11
-10 12 -12 2 -8 -8 4 0 -5 18 -20 17 -14 32 -32 32 -40 0 -7 19 -28 42 -47 23
-18 39 -26 34 -18 -6 11 -4 11 6 -1 15 -19 69 -48 112 -61 57 -17 200 -38 261
-38 106 0 350 32 515 67 l35 8 0 708 0 707 -125 0 -125 0 3 -610 c2 -430 -1
-610 -8 -610 -6 0 -9 -4 -6 -8 2 -4 -7 -9 -22 -10 -15 -1 -79 -7 -143 -12
-136 -13 -227 -2 -300 35 -26 13 -49 21 -51 19 -3 -2 -15 8 -29 23 -13 14 -17
23 -9 19 8 -4 6 0 -5 9 -11 9 -19 21 -18 26 2 5 -2 9 -8 9 -5 0 -7 5 -4 10 3
6 2 10 -2 10 -12 0 -42 93 -50 155 -4 28 -8 249 -8 493 l0 442 -125 0 -125 0
6 -507z"/>
<path d="M12470 3625 c19 -19 36 -35 39 -35 3 0 -10 16 -29 35 -19 19 -36 35
-39 35 -3 0 10 -16 29 -35z"/>
<path d="M14833 2833 c4 -6 -2 -13 -13 -16 -11 -3 -18 -1 -14 4 7 12 -49 12
-62 -1 -14 -14 -788 -14 -792 0 -2 5 -8 8 -13 5 -5 -3 -3 -14 3 -25 7 -11 10
-21 8 -22 -28 -19 -130 -120 -188 -187 -40 -45 -79 -90 -87 -98 -8 -8 -15 -19
-15 -25 0 -5 -7 -7 -16 -4 -8 3 -12 2 -9 -4 8 -13 -14 -52 -25 -45 -6 3 -7 0
-4 -8 3 -8 -2 -20 -11 -27 -12 -10 -15 -10 -15 5 0 14 -3 15 -15 5 -8 -7 -15
-16 -15 -21 0 -5 7 -9 15 -9 17 0 19 -9 6 -29 -8 -12 -13 -12 -24 -3 -12 10
-16 9 -21 -3 -4 -10 1 -15 14 -15 13 0 18 -5 14 -15 -4 -9 -13 -13 -23 -10
-11 3 -25 -5 -40 -25 -23 -32 -20 -56 6 -46 9 4 13 1 10 -6 -2 -7 -14 -12 -25
-10 -12 2 -22 -2 -22 -7 0 -6 7 -11 15 -11 17 0 20 -16 5 -25 -5 -3 -10 -1
-10 5 0 7 -5 10 -11 8 -7 -2 -22 -35 -35 -73 -28 -82 -27 -75 -14 -75 6 0 10
8 10 18 0 9 9 32 20 50 11 18 18 37 15 43 -4 5 -1 9 4 9 16 0 15 -5 -25 -115
-42 -117 -40 -111 -63 -238 -9 -54 -20 -95 -23 -92 -3 3 -4 -9 -2 -26 2 -18
-3 -43 -11 -55 -18 -28 -20 -75 -3 -92 7 -7 8 -12 3 -12 -6 0 -11 -43 -13 -95
-3 -75 0 -98 12 -110 10 -11 13 -26 9 -45 -4 -20 -2 -30 7 -30 7 0 10 -8 7
-20 -3 -11 -1 -23 4 -26 5 -3 9 -14 9 -25 0 -10 5 -19 10 -19 6 0 10 -12 10
-26 0 -16 4 -23 12 -18 8 5 9 0 6 -14 -4 -15 -2 -22 9 -22 8 0 11 -5 8 -10 -9
-15 3 -47 21 -54 10 -4 13 -2 8 7 -4 6 2 3 15 -7 12 -11 19 -26 16 -33 -3 -9
0 -11 7 -7 8 5 9 2 5 -10 -5 -12 -3 -16 5 -13 7 2 30 -13 50 -33 20 -21 44
-40 53 -43 8 -4 15 -11 15 -16 0 -5 10 -13 22 -17 12 -3 47 -23 77 -42 31 -20
61 -37 67 -38 27 -4 69 -31 66 -43 -2 -9 3 -9 17 -2 14 8 22 7 31 -4 8 -10 21
-13 33 -9 13 4 17 2 13 -5 -7 -10 11 -16 41 -12 6 1 14 -3 18 -9 3 -5 19 -10
35 -10 15 0 30 -4 32 -10 2 -5 18 -10 36 -12 17 -1 32 -6 32 -10 0 -4 18 -8
40 -8 22 0 40 -4 40 -10 0 -5 24 -10 54 -10 30 0 58 -4 61 -10 3 -5 19 -7 34
-4 16 3 55 0 87 -7 33 -7 63 -12 69 -10 5 1 34 2 65 1 30 -1 65 -1 78 -1 12 1
22 -4 22 -9 0 -7 41 -10 113 -8 61 1 270 1 462 0 317 -1 648 13 765 33 19 3
60 8 90 11 30 2 78 8 105 13 28 5 79 15 115 22 36 7 82 12 103 12 20 -1 37 3
37 7 0 11 94 40 100 31 7 -11 50 5 50 19 0 5 11 10 24 10 13 0 29 7 36 15 7 9
20 13 28 10 9 -3 19 0 23 7 7 11 12 11 30 0 11 -8 18 -9 15 -4 -3 6 7 16 23
23 16 7 27 17 25 21 -3 4 2 8 10 8 9 0 16 5 16 10 0 6 9 10 20 10 11 0 27 11
36 25 9 14 22 25 29 25 7 0 15 7 19 15 3 8 15 15 26 15 11 0 20 5 20 11 0 17
91 125 102 121 5 -1 7 2 4 7 -3 5 10 43 29 84 41 88 65 174 65 232 0 22 5 47
11 55 8 12 10 9 6 -12 -2 -16 0 -28 4 -28 5 0 9 25 9 55 0 37 -4 55 -12 55
-10 0 -10 2 -2 8 13 8 25 120 14 127 -10 6 -21 -51 -14 -70 4 -8 1 -15 -5 -15
-6 0 -11 20 -11 48 0 26 -5 86 -12 132 -6 47 -12 99 -12 117 0 18 -3 30 -8 27
-8 -5 -12 24 -9 59 1 9 -3 17 -9 17 -7 0 -10 6 -7 14 3 8 2 16 -3 18 -5 2 -10
14 -12 28 -2 14 -10 36 -17 49 -7 13 -11 34 -8 47 3 17 0 24 -10 24 -9 0 -13
6 -9 15 3 8 1 15 -3 15 -10 0 -43 78 -41 94 1 5 -2 12 -7 15 -14 10 -43 68
-43 85 0 9 -4 16 -9 16 -8 0 -69 89 -82 121 -4 9 -18 27 -31 41 -35 36 -120
137 -143 169 -11 16 -24 29 -30 29 -5 0 -38 27 -72 60 l-63 60 -382 1 c-211 0
-402 2 -426 5 -24 2 -51 0 -59 -5 -13 -7 -9 -12 20 -26 21 -9 37 -21 37 -26 0
-5 6 -9 14 -9 7 0 45 -29 82 -65 38 -37 59 -61 46 -55 -21 10 -23 10 -13 -7
18 -33 56 -70 67 -66 7 2 12 -2 11 -9 -1 -38 4 -50 19 -44 8 3 13 2 10 -3 -8
-12 14 -74 30 -87 7 -6 12 -21 9 -32 -2 -12 0 -22 6 -22 5 0 9 -24 9 -52 0
-40 -3 -49 -11 -38 -7 11 -9 -7 -6 -65 4 -62 0 -91 -14 -130 -35 -94 -130
-169 -194 -154 -46 10 -95 10 -95 -1 0 -5 14 -10 30 -10 17 0 30 -4 30 -8 0
-5 -23 -8 -51 -9 -75 0 -190 58 -264 134 -57 58 -115 134 -115 151 0 5 -6 15
-14 21 -8 6 -22 38 -32 71 -11 33 -22 60 -26 60 -5 0 -8 5 -8 11 0 5 5 7 10 4
6 -3 10 -1 10 4 0 6 -11 11 -25 11 -20 0 -25 -5 -26 -27 -1 -16 0 -35 1 -42 1
-13 -1 -13 -14 -2 -18 15 -18 15 -21 -17 -2 -18 0 -20 11 -11 19 16 17 5 -7
-42 -40 -78 -132 -199 -152 -199 -5 0 -18 -10 -29 -22 -11 -13 -16 -16 -12 -8
6 11 2 10 -13 -2 -11 -10 -27 -18 -37 -18 -9 0 -19 -7 -22 -15 -5 -13 -9 -13
-22 -3 -10 8 -13 8 -9 2 9 -15 -17 -25 -40 -17 -10 3 -15 3 -11 -2 4 -4 0 -14
-10 -21 -12 -9 -19 -9 -24 -1 -4 6 -37 12 -75 14 -45 2 -61 0 -48 -6 11 -5 23
-7 28 -4 4 2 7 -2 7 -9 0 -18 -48 -16 -86 5 -41 21 -112 107 -106 128 1 5 -3
9 -9 9 -6 0 -8 8 -4 19 4 12 0 21 -11 25 -9 4 -14 9 -11 13 4 3 2 12 -4 19 -6
7 -10 39 -9 71 1 32 2 95 3 141 1 51 7 86 14 90 13 8 35 57 38 84 4 37 160
212 180 201 5 -4 7 -3 3 1 -10 11 22 42 52 51 14 4 31 12 38 17 15 13 16 45 0
54 -6 4 -8 3 -5 -3z m-1303 -584 c-10 -17 -30 -27 -30 -13 0 15 22 44 31 39 5
-4 5 -13 -1 -26z m2517 -51 c-3 -8 -6 -5 -6 6 -1 11 2 17 5 13 3 -3 4 -12 1
-19z m-1247 -298 c0 -5 -9 -10 -20 -10 -11 0 -20 5 -20 10 0 6 9 10 20 10 11
0 20 -4 20 -10z m-1463 -362 c-3 -7 -5 -2 -5 12 0 14 2 19 5 13 2 -7 2 -19 0
-25z m0 -195 c-3 -10 -5 -4 -5 12 0 17 2 24 5 18 2 -7 2 -21 0 -30z"/>
<path d="M15127 2752 c5 -11 0 -13 -28 -7 -31 7 -33 6 -19 -10 14 -17 13 -18
-23 -11 -28 5 -37 4 -32 -4 12 -20 -14 -40 -41 -30 -19 7 -24 6 -24 -5 0 -8
-5 -15 -11 -15 -11 0 -39 -25 -39 -35 0 -3 5 -3 12 1 7 4 8 3 4 -4 -5 -8 -15
-8 -34 -2 -25 10 -26 9 -8 -5 22 -16 19 -18 -36 -15 -28 1 -38 -2 -38 -14 0
-8 5 -18 10 -21 6 -3 10 1 10 9 0 10 9 16 22 16 18 0 12 -10 -38 -64 -32 -35
-64 -62 -71 -60 -7 2 -10 -3 -6 -12 4 -11 0 -15 -12 -12 -10 2 -20 -3 -22 -9
-3 -7 3 -13 12 -13 9 0 14 -4 11 -9 -3 -5 -15 -7 -26 -4 -14 4 -20 0 -20 -11
0 -9 7 -16 16 -16 11 0 14 -5 9 -17 -3 -10 -9 -40 -12 -66 -4 -32 -9 -44 -14
-35 -6 9 -9 6 -9 -9 0 -13 5 -23 11 -23 7 0 9 -11 6 -29 -4 -17 0 -36 9 -50 9
-12 13 -28 10 -36 -3 -9 1 -15 10 -15 11 0 14 -5 10 -17 -4 -10 -4 -14 0 -10
4 3 19 -2 34 -13 24 -17 29 -18 40 -5 6 7 19 11 27 8 9 -4 14 -2 10 3 -3 6 14
19 39 30 24 10 44 22 44 27 0 4 8 7 17 7 9 0 14 3 11 6 -3 3 4 15 16 28 43 46
83 95 80 99 -2 2 9 33 24 68 16 35 39 105 51 154 12 50 25 97 28 105 4 13 8
34 15 99 1 10 5 9 15 -5 12 -16 13 -16 13 9 0 16 -5 27 -14 27 -7 0 -16 8 -18
18 -3 10 -12 19 -21 19 -9 0 -13 -6 -10 -15z"/>
<path d="M15350 2723 c0 -10 3 -29 7 -41 4 -18 8 -20 14 -10 7 10 9 9 9 -4 0
-10 5 -18 10 -18 6 0 10 -18 10 -40 0 -22 5 -40 10 -40 7 0 8 -13 4 -35 -5
-26 -2 -36 9 -41 9 -3 13 -13 10 -25 -3 -11 0 -19 7 -19 7 0 10 -8 7 -20 -5
-21 13 -70 26 -70 5 0 5 -5 2 -11 -4 -5 1 -19 10 -29 9 -10 14 -23 11 -29 -4
-6 -2 -20 5 -32 9 -18 13 -19 21 -8 8 11 9 10 4 -4 -7 -23 8 -53 35 -68 17 -9
20 -8 13 3 -7 11 33 -21 102 -83 12 -10 26 -19 32 -19 6 0 12 -4 14 -8 2 -5
16 -12 31 -16 18 -4 26 -3 22 3 -3 6 5 13 19 17 14 3 28 15 31 25 4 11 10 17
15 14 4 -3 8 1 7 8 -1 35 5 57 19 71 8 9 12 16 7 16 -4 0 -6 27 -5 60 3 38 -1
66 -8 75 -7 8 -10 22 -6 30 3 9 2 13 -4 10 -6 -3 -10 5 -10 18 0 14 -7 27 -15
31 -8 3 -15 12 -15 20 0 16 -95 116 -145 153 -39 29 -167 92 -222 108 -39 12
-43 11 -57 -9 -15 -21 -15 -21 -15 7 -1 15 -5 27 -11 27 -5 0 -10 -8 -10 -17z"/>
<path d="M1520 2485 c-24 -25 -42 -45 -39 -45 3 0 25 20 49 45 24 25 42 45 39
45 -3 0 -25 -20 -49 -45z"/>
</g>
</svg>
